# xmcd
#
# Track frame offsets:
#	150
#	15265
#	30035
#	43128
#	56213
#	67568
#	77805
#	89010
#	102123
#	114758
#	129850
#	143105
#	150063
#	164808
#	178813
#	195060
#	206990
#	221240
#	233535
#	244703
#
# Disc length: 3432 seconds
#
# Revision: 0
# Processed by: cddbd v1.4PL0 Copyright (c) Steve Scherf et al.
# Submitted via: dBpowerAMP V4.0
#
DISCID=f80d6614
DTITLE=Luis Mariano - Chansons de film
DYEAR=1900
DGENRE=Opera
TTITLE0=Je chante pour toi que j'aime
TTITLE1=Mélodie pour toi
TTITLE2=Illusion
TTITLE3=Sur le pont de mon voilier
TTITLE4=La vie en chantant
TTITLE5=La valse des beaux jours
TTITLE6=Tchi-ki-tin
TTITLE7=Je te dis "merci Paris"
TTITLE8=Le plus joli pays du monde
TTITLE9=La valse mexicaine
TTITLE10=De Montreal à Quebec
TTITLE11=Plaisir d'amour
TTITLE12=Si vous croyez aimer
TTITLE13=L'heure de l'amour
TTITLE14=Jamaica
TTITLE15=Pour l'amour d'une belle
TTITLE16=Maietechu
TTITLE17=Miracle de Paris
TTITLE18=Chanter
TTITLE19=Je veux t'aimer
EXTD=
EXTT0=
EXTT1=
EXTT2=
EXTT3=
EXTT4=
EXTT5=
EXTT6=
EXTT7=
EXTT8=
EXTT9=
EXTT10=
EXTT11=
EXTT12=
EXTT13=
EXTT14=
EXTT15=
EXTT16=
EXTT17=
EXTT18=
EXTT19=
PLAYORDER=
